<svg xmlns="http://www.w3.org/2000/svg" viewBox="0 0 427.16 512"><defs><style>.cls-1{fill:#f0e4d9;}</style></defs><g id="Layer_2" data-name="Layer 2"><g id="Layer_1-2" data-name="Layer 1"><path class="cls-1" d="M210.35,246.63c33.88,0,63.22-12.15,87.2-36.13s36.12-53.3,36.12-87.19S321.52,60.1,297.54,36.12,244.23,0,210.35,0s-63.22,12.15-87.19,36.12S87,89.43,87,123.31s12.16,63.23,36.13,87.2S176.48,246.63,210.35,246.63Zm-66-189.29C162.77,39,184.35,30,210.35,30s47.58,9,66,27.34,27.34,40,27.34,66-8.95,47.58-27.34,66-40,27.34-66,27.34-47.57-8.95-66-27.34-27.34-40-27.34-66S126,75.74,144.38,57.34Z"/><path class="cls-1" d="M426.13,393.7A304,304,0,0,0,422,361.35a254.26,254.26,0,0,0-8-32.53,160.71,160.71,0,0,0-13.37-30.33,114.34,114.34,0,0,0-20.16-26.28,89.06,89.06,0,0,0-29-18.2,100.07,100.07,0,0,0-37-6.69c-5.23,0-10.28,2.14-20.05,8.5-6,3.92-13,8.45-20.88,13.46-6.7,4.27-15.79,8.28-27,11.9a104.91,104.91,0,0,1-66.09,0c-11.21-3.62-20.3-7.62-27-11.89-7.77-5-14.8-9.5-20.9-13.47-9.75-6.36-14.81-8.5-20-8.5a99.87,99.87,0,0,0-37,6.7,88.75,88.75,0,0,0-29,18.19A114.46,114.46,0,0,0,26.5,298.49a161.2,161.2,0,0,0-13.38,30.34,257.1,257.1,0,0,0-7.95,32.52A302.88,302.88,0,0,0,1,393.71c-.68,9.78-1,20-1,30.24,0,26.73,8.5,48.36,25.25,64.32C41.8,504,63.69,512,90.32,512H336.85c26.62,0,48.51-8,65.06-23.73,16.76-15.95,25.25-37.59,25.25-64.32C427.16,413.63,426.81,403.45,426.13,393.7Zm-44.91,72.83C370.29,476.94,355.77,482,336.84,482H90.32c-18.94,0-33.45-5.06-44.38-15.46C35.21,456.33,30,442.39,30,424c0-9.59.32-19.07.95-28.16a274.18,274.18,0,0,1,3.75-29.14,225,225,0,0,1,7-28.67,130.67,130.67,0,0,1,10.88-24.67A84.78,84.78,0,0,1,67.4,293.89a58.81,58.81,0,0,1,19.27-12,68.94,68.94,0,0,1,23.63-4.56c1,.56,2.92,1.63,6,3.6,6.17,4,13.28,8.61,21.14,13.63,8.86,5.65,20.27,10.75,33.91,15.15a134.78,134.78,0,0,0,84.54,0c13.65-4.41,25.06-9.5,33.93-15.16,8-5.14,15-9.59,21.12-13.62,3-2,4.9-3,5.95-3.6a69,69,0,0,1,23.64,4.56,59.08,59.08,0,0,1,19.27,12,84.53,84.53,0,0,1,14.81,19.42A130.28,130.28,0,0,1,385.45,338a224.28,224.28,0,0,1,7,28.68,275.17,275.17,0,0,1,3.75,29.14h0c.64,9.06,1,18.53,1,28.15C397.16,442.4,392,456.33,381.22,466.53Z"/></g></g></svg>